<svg xmlns="http://www.w3.org/2000/svg" width="657" height="290">
 <!-- Created with Image Occlusion Enhanced -->
 <g>
  <title>Labels</title>
 </g>
 <g>
  <title>Masks</title>
  <rect id="2fe15a101a844646acd8a33a409e3403-oa-1" height="18.08511" width="79.78723" y="97.23403" x="12.14892" stroke="#2D2D2D" fill="#FFEBA2"/>
  <rect id="2fe15a101a844646acd8a33a409e3403-oa-2" height="15.95745" width="67.02128" y="97.23403" x="489.80848" stroke="#2D2D2D" fill="#FFEBA2"/>
  <rect id="2fe15a101a844646acd8a33a409e3403-oa-3" height="18.08511" width="85.10638" y="119.57446" x="10.02126" stroke="#2D2D2D" fill="#FFEBA2"/>
  <rect id="2fe15a101a844646acd8a33a409e3403-oa-4" height="17.02128" width="67.02128" y="119.57446" x="492.99997" stroke="#2D2D2D" fill="#FFEBA2"/>
  <rect id="2fe15a101a844646acd8a33a409e3403-oa-5" height="17.02128" width="86.17021" y="144.04254" x="12.14892" stroke="#2D2D2D" fill="#FFEBA2"/>
  <rect id="2fe15a101a844646acd8a33a409e3403-oa-6" height="14.89362" width="67.02128" y="144.04254" x="333.4255" stroke="#2D2D2D" fill="#FFEBA2"/>
  <rect id="2fe15a101a844646acd8a33a409e3403-oa-7" height="19.14894" width="89.3617" y="166.38297" x="12.14892" stroke="#2D2D2D" fill="#FFEBA2"/>
  <rect id="2fe15a101a844646acd8a33a409e3403-oa-8" height="14.89362" width="37.23404" y="169.57446" x="171.72338" stroke="#2D2D2D" fill="#FFEBA2"/>
  <rect id="2fe15a101a844646acd8a33a409e3403-oa-9" height="14.89362" width="76.59574" y="169.57446" x="490.87231" stroke="#2D2D2D" fill="#FFEBA2"/>
  <rect id="2fe15a101a844646acd8a33a409e3403-oa-10" height="14.89362" width="48.93617" y="188.72339" x="12.14892" stroke="#2D2D2D" fill="#FFEBA2"/>
  <rect id="2fe15a101a844646acd8a33a409e3403-oa-11" height="18.08511" width="42.55319" y="188.72339" x="172.78721" stroke="#2D2D2D" fill="#FFEBA2"/>
  <rect id="2fe15a101a844646acd8a33a409e3403-oa-12" height="15.95745" width="58.51064" y="190.85105" x="329.17019" stroke="#2D2D2D" fill="#FFEBA2"/>
  <rect id="2fe15a101a844646acd8a33a409e3403-oa-13" height="14.89362" width="64.89362" y="212.12765" x="8.95743" stroke="#2D2D2D" fill="#FFEBA2"/>
  <rect id="2fe15a101a844646acd8a33a409e3403-oa-14" height="15.95745" width="52.12766" y="212.12765" x="332.36167" stroke="#2D2D2D" fill="#FFEBA2"/>
  <rect id="2fe15a101a844646acd8a33a409e3403-oa-15" height="17.02128" width="55.31915" y="212.12765" x="491.93614" stroke="#2D2D2D" fill="#FFEBA2"/>
  <rect id="2fe15a101a844646acd8a33a409e3403-oa-16" height="17.02128" width="62.76596" y="234.46807" x="11.08509" stroke="#2D2D2D" fill="#FFEBA2"/>
  <rect id="2fe15a101a844646acd8a33a409e3403-oa-17" height="11.70213" width="55.31915" y="236.59573" x="330.23402" stroke="#2D2D2D" fill="#FFEBA2"/>
  <rect id="2fe15a101a844646acd8a33a409e3403-oa-18" height="17.02128" width="59.57447" y="234.46807" x="490.87231" stroke="#2D2D2D" fill="#FFEBA2"/>
 </g>
</svg>