<svg xmlns="http://www.w3.org/2000/svg" width="1219" height="548">
 <!-- Created with Image Occlusion Enhanced -->
 <g>
  <title>Labels</title>
 </g>
 <g>
  <title>Masks</title>
  <rect id="b5ebb3c7460f4202abb42e283bc5da23-ao-1" height="63.63636" width="150" y="126.09092" x="329.18178" stroke="#2D2D2D" fill="#aaffff"/>
  <rect stroke="#2D2D2D" id="b5ebb3c7460f4202abb42e283bc5da23-ao-2" height="48.18182" width="99.09091" y="129.72729" x="542.81815" fill="#aaffff"/>
  <rect id="b5ebb3c7460f4202abb42e283bc5da23-ao-3" stroke="#2D2D2D" height="48.18182" width="99.09091" y="308.36364" x="545.99997" fill="#aaffff"/>
  <rect id="b5ebb3c7460f4202abb42e283bc5da23-ao-4" stroke="#2D2D2D" height="48.18182" width="99.09091" y="197.45455" x="546.90906" fill="#aaffff"/>
  <rect id="b5ebb3c7460f4202abb42e283bc5da23-ao-5" stroke="#2D2D2D" height="48.18182" width="99.09091" y="254.72728" x="546.90906" fill="#aaffff"/>
  <rect id="b5ebb3c7460f4202abb42e283bc5da23-ao-6" stroke="#2D2D2D" height="48.18182" width="99.09091" y="120.18181" x="704.18179" fill="#ffff7f" class="qshape"/>
  <rect id="b5ebb3c7460f4202abb42e283bc5da23-ao-7" stroke="#2D2D2D" height="48.18182" width="99.09091" y="193.81818" x="689.63634" fill="#aaffff"/>
  <rect id="b5ebb3c7460f4202abb42e283bc5da23-ao-8" stroke="#2D2D2D" height="48.18182" width="99.09091" y="250.18182" x="691.45452" fill="#aaffff"/>
  <rect id="b5ebb3c7460f4202abb42e283bc5da23-ao-9" stroke="#2D2D2D" height="48.18182" width="99.09091" y="123.81818" x="969.63633" fill="#aaffff"/>
  <rect id="b5ebb3c7460f4202abb42e283bc5da23-ao-10" stroke="#2D2D2D" height="48.18182" width="99.09091" y="197.45455" x="969.63633" fill="#aaffff"/>
  <rect id="b5ebb3c7460f4202abb42e283bc5da23-ao-11" stroke="#2D2D2D" height="48.18182" width="99.09091" y="252.9091" x="968.72724" fill="#aaffff"/>
  <rect id="b5ebb3c7460f4202abb42e283bc5da23-ao-12" stroke="#2D2D2D" height="48.18182" width="99.09091" y="310.18182" x="973.27271" fill="#aaffff"/>
  <rect stroke="#2D2D2D" id="b5ebb3c7460f4202abb42e283bc5da23-ao-13" height="48.18182" width="165.45455" y="305.63637" x="322.3636" fill="#aaffff"/>
  <rect stroke="#2D2D2D" id="b5ebb3c7460f4202abb42e283bc5da23-ao-14" height="48.18182" width="165.45455" y="251.09091" x="323.27268" fill="#aaffff"/>
  <rect stroke="#2D2D2D" id="b5ebb3c7460f4202abb42e283bc5da23-ao-15" height="48.18182" width="170.9091" y="195.63637" x="321.45453" fill="#aaffff"/>
  <rect stroke="#2D2D2D" id="b5ebb3c7460f4202abb42e283bc5da23-ao-16" height="26.36364" width="92.72727" y="439.27273" x="456.90906" fill="#aaffff"/>
 </g>
</svg>